<svg width="104" height="56" viewBox="0 0 104 56" version="1.1" xmlns="http://www.w3.org/2000/svg" xmlns:xlink="http://www.w3.org/1999/xlink">
<title>Polygon</title>
<desc>Created using Figma</desc>
<g id="Canvas" transform="translate(462 -394)">
<g id="Polygon">
<use xlink:href="#path0_fill" transform="matrix(-1 0.000951271 -0.000951271 -1 -326.948 448.944)" fill="#282826" fill-opacity="0.6"/>
<mask id="mask0_outline_out">
<rect id="mask0_outline_inv" fill="white" x="31" y="-1" width="104" height="56" transform="matrix(-1 0.000951271 -0.000951271 -1 -326.948 448.944)"/>
<use xlink:href="#path0_fill" fill="black" transform="matrix(-1 0.000951271 -0.000951271 -1 -326.948 448.944)"/>
</mask>
<g mask="url(#mask0_outline_out)">
<use xlink:href="#path1_stroke_2x" transform="matrix(-1 0.000951271 -0.000951271 -1 -326.948 448.944)" fill="#282826"/>
</g>
</g>
</g>
<defs>
<path id="path0_fill" d="M 76.5691 4.62155C 80.4067 1.86064 85.5793 1.86064 89.417 4.62155L 127.165 31.7786C 135.837 38.0169 131.423 51.7079 120.741 51.7079L 45.2447 51.7079C 34.5625 51.7079 30.1494 38.0169 38.8207 31.7786L 76.5691 4.62155Z"/>
<path id="path1_stroke_2x" d="M 89.417 4.62155L 87.665 7.05682L 89.417 4.62155ZM 127.165 31.7786L 125.413 34.2138L 127.165 31.7786ZM 87.665 7.05682L 125.413 34.2138L 128.917 29.3433L 91.169 2.18628L 87.665 7.05682ZM 120.741 48.7079L 45.2447 48.7079L 45.2447 54.7079L 120.741 54.7079L 120.741 48.7079ZM 40.5727 34.2138L 78.321 7.05682L 74.8171 2.18628L 37.0688 29.3433L 40.5727 34.2138ZM 91.169 2.18628C 86.2847 -1.3276 79.7014 -1.3276 74.8171 2.18628L 78.321 7.05682C 81.1121 5.04888 84.874 5.04888 87.665 7.05682L 91.169 2.18628ZM 125.413 34.2138C 131.72 38.7508 128.51 48.7079 120.741 48.7079L 120.741 54.7079C 134.337 54.7079 139.954 37.283 128.917 29.3433L 125.413 34.2138ZM 45.2447 48.7079C 37.4759 48.7079 34.2663 38.7508 40.5727 34.2138L 37.0688 29.3433C 26.0325 37.283 31.6492 54.7079 45.2447 54.7079L 45.2447 48.7079Z"/>
</defs>
</svg>
